<svg width="268" height="88" viewBox="0 0 268 88" fill="none" xmlns="http://www.w3.org/2000/svg">
<path d="M149.592 86.1102C145.991 86.1102 142.39 86.1102 138.79 86.1102C138.53 86.1102 138.27 86.1175 138.01 86.1102C137.271 86.081 136.933 85.5359 137.23 84.8664C137.346 84.6066 137.572 84.6213 137.787 84.6139C138.27 84.603 138.752 84.5993 139.235 84.5993C139.647 84.5993 139.851 84.4018 139.851 83.9957C139.851 83.7396 139.859 83.4835 139.859 83.2274C139.859 73.9351 139.859 64.6428 139.859 55.3505C139.859 55.131 139.847 54.9115 139.859 54.692C139.881 54.1981 139.684 53.9384 139.146 53.964C138.7 53.9859 138.255 53.9457 137.81 53.9676C137.308 53.9932 137.175 53.7481 137.175 53.3018C137.175 52.8811 137.249 52.5738 137.772 52.6104C137.995 52.625 138.218 52.6104 138.441 52.6104C145.271 52.6104 152.101 52.6104 158.931 52.6104C159.191 52.6104 159.451 52.625 159.711 52.6104C160.219 52.5884 160.453 52.797 160.449 53.3164C160.438 55.2188 160.435 57.1212 160.449 59.0235C160.453 59.554 160.216 59.715 159.707 59.7113C159.21 59.7076 159.069 59.4845 159.08 59.0382C159.098 58.4528 159.095 57.8675 159.069 57.2821C158.979 55.3469 157.602 53.9823 155.635 53.9676C152.146 53.9384 148.656 53.9567 145.167 53.9676C144.302 53.9676 144.276 53.9896 144.276 54.82C144.269 59.0272 144.265 63.2343 144.276 67.4415C144.276 68.2171 144.324 68.2646 145.096 68.2719C147.138 68.2902 149.18 68.2866 151.221 68.2719C151.856 68.2683 152.48 68.111 153.044 67.8402C153.894 67.4305 154.477 66.8196 154.391 65.7806C154.347 65.2355 154.402 64.6831 154.384 64.1343C154.365 63.6733 154.54 63.4465 155.026 63.4831C155.212 63.4977 155.397 63.5014 155.583 63.4831C156.132 63.4282 156.284 63.6953 156.281 64.1965C156.262 66.0257 156.273 67.8549 156.273 69.6841C156.273 70.9279 156.284 72.1718 156.27 73.4156C156.259 74.1985 156.225 74.2168 155.46 74.2424C154.432 74.2753 154.402 74.2497 154.391 73.2364C154.388 72.8705 154.384 72.5047 154.391 72.1388C154.425 70.6791 153.567 69.728 152.071 69.6548C150.999 69.6036 149.918 69.6402 148.842 69.6402C147.654 69.6402 146.466 69.6329 145.278 69.6402C144.295 69.6475 144.276 69.6585 144.276 70.6133C144.269 73.7961 144.276 76.9789 144.276 80.1617C144.276 81.369 144.265 82.5762 144.283 83.7835C144.295 84.5554 144.321 84.592 145.115 84.592C149.161 84.5957 153.207 84.6139 157.253 84.5627C159.065 84.5408 160.386 83.2713 160.576 81.4824C160.65 80.7946 160.635 80.0922 160.628 79.4007C160.62 78.863 160.962 78.83 161.363 78.8374C161.741 78.8447 162.124 78.8154 162.124 79.3715C162.116 81.4202 162.116 83.4689 162.124 85.5176C162.124 85.9419 161.919 86.1066 161.511 86.0993C160.991 86.0919 160.472 86.0993 159.952 86.0993C156.5 86.0993 153.048 86.0993 149.595 86.0993L149.592 86.1102Z" fill="#1B2621"/>
<path d="M129.069 16.6477C126.241 13.5235 123.55 10.5528 120.858 7.58224C120.884 7.53102 120.914 7.48346 120.94 7.43224C121.307 7.6115 121.679 7.78711 122.039 7.97734C124.886 9.48094 127.729 10.9882 130.573 12.4955C130.77 12.5979 130.97 12.693 131.163 12.8064C131.597 13.0625 131.839 12.9747 131.917 12.4516C132.035 11.6174 132.188 10.7906 132.321 9.96019C132.819 6.8908 133.312 3.82141 133.817 0.752027C133.977 -0.210129 134.025 -0.195495 134.129 0.492282C134.411 2.37269 134.701 4.2531 134.983 6.13352C135.276 8.0871 135.566 10.0407 135.859 11.9943C135.907 12.3162 135.918 12.6528 136.234 13.0369C139.723 11.1967 143.231 9.34558 146.902 7.40663C146.587 8.07246 146.227 8.42732 145.889 8.80048C143.858 11.0358 141.828 13.271 139.797 15.5063C139.575 15.7514 139.356 16.0002 139.137 16.249C138.91 16.4977 138.932 16.7063 139.252 16.8489C139.489 16.955 139.727 17.0538 139.968 17.1526C142.808 18.3306 145.648 19.5049 148.484 20.6866C148.948 20.8805 149.438 21.0341 149.976 21.4512C148.305 21.3524 146.798 21.2719 145.295 21.1768C143.034 21.0305 140.777 20.8768 138.52 20.7232C137.641 20.6646 137.592 20.7012 137.837 21.528C138.758 24.6157 139.697 27.6997 140.625 30.7837C140.8 31.3691 140.967 31.9544 141.015 32.5983C138.71 29.3387 136.404 26.0754 134.01 22.6877C131.579 26.0498 129.24 29.2801 126.902 32.5142C126.85 32.4885 126.798 32.4629 126.746 32.441C127.158 31.0435 127.566 29.646 127.985 28.2521C128.639 26.079 129.3 23.906 129.949 21.7292C130.261 20.6829 130.239 20.6719 129.162 20.7415C125.424 20.9866 121.686 21.217 117.889 21.3122C121.556 19.783 125.224 18.2538 129.073 16.6477H129.069Z" fill="#1B2621"/>
<path d="M217.09 86.1093C213.489 86.1093 209.892 86.1093 206.291 86.1093C206.031 86.1093 205.771 86.1166 205.512 86.1093C204.795 86.0764 204.754 86.0288 204.754 85.352C204.754 84.6752 204.791 84.6313 205.515 84.6057C205.998 84.5911 206.48 84.6167 206.963 84.5984C207.72 84.5691 207.746 84.5362 207.78 83.7569C207.787 83.574 207.78 83.3911 207.78 83.2082C207.78 73.9195 207.78 64.6309 207.78 55.3386C207.78 53.8094 207.809 53.9777 206.391 53.9667C206.169 53.9667 205.946 53.9667 205.723 53.9667C204.803 53.9521 204.762 53.9228 204.754 53.3192C204.747 52.668 204.821 52.6021 205.783 52.5985C208.381 52.5911 210.979 52.5985 213.574 52.5985C214.242 52.5985 214.911 52.6131 215.579 52.6021C216.076 52.5948 216.206 52.8619 216.199 53.2972C216.195 53.7289 216.08 53.9887 215.568 53.9704C214.788 53.9448 214.009 53.9594 213.229 53.9704C212.216 53.9813 212.216 53.985 212.201 55.024C212.201 55.1337 212.201 55.2435 212.201 55.3532C212.201 64.6419 212.201 73.9305 212.201 83.2228C212.201 84.7008 212.119 84.5984 213.578 84.602C216.956 84.602 220.334 84.5289 223.708 84.624C226.793 84.7081 228.226 82.9411 228.029 80.351C228.014 80.1315 228.022 79.912 228.029 79.6925C228.059 78.9096 228.497 78.6133 229.25 78.8547C229.644 78.9827 229.573 79.301 229.573 79.5791C229.581 81.079 229.599 82.5789 229.57 84.0789C229.558 84.7228 229.87 85.5313 229.38 85.9703C228.95 86.3581 228.166 86.102 227.539 86.1056C224.05 86.1166 220.564 86.1093 217.075 86.1093H217.09Z" fill="#1B2621"/>
<path d="M184.517 86.1085C180.879 86.1085 177.238 86.1085 173.6 86.1085C173.377 86.1085 173.155 86.1158 172.932 86.1085C172.227 86.0792 171.867 85.4426 172.204 84.839C172.338 84.5975 172.564 84.6158 172.783 84.6122C173.377 84.6012 173.971 84.5902 174.565 84.6049C175.066 84.6158 175.345 84.4366 175.315 83.9061C175.304 83.6866 175.315 83.4671 175.315 83.2476C175.315 73.9516 175.315 64.6593 175.315 55.3634C175.315 55.2902 175.315 55.217 175.315 55.1439C175.308 54.3634 174.891 53.9707 174.064 53.9659C173.619 53.9659 173.173 53.9476 172.728 53.9659C172.197 53.9878 172.141 53.6732 172.134 53.2635C172.123 52.8098 172.279 52.5976 172.772 52.6013C175.111 52.6159 177.449 52.6049 179.788 52.6049C180.827 52.6049 181.867 52.6196 182.906 52.6013C183.381 52.594 183.56 52.7732 183.56 53.2452C183.56 53.7317 183.448 53.9988 182.88 53.9732C182.101 53.9403 181.321 53.9512 180.542 53.9732C179.77 53.9915 179.762 54.0134 179.729 54.8036C179.721 54.9866 179.729 55.1695 179.729 55.3524C179.729 64.6484 179.729 73.9407 179.729 83.2366C179.729 84.6634 179.636 84.6049 181.128 84.6049C184.617 84.6049 188.107 84.6049 191.6 84.6049C192.313 84.6049 193.007 84.55 193.66 84.2317C194.918 83.6171 195.557 82.4903 195.442 81.1221C195.397 80.577 195.449 80.0246 195.412 79.4758C195.375 78.8941 195.705 78.8246 196.173 78.8246C196.645 78.8246 196.956 78.9051 196.949 79.4758C196.93 81.0123 196.945 82.5488 196.949 84.0854C196.949 85.4341 196.262 86.1085 194.889 86.1085C191.437 86.1085 187.984 86.1085 184.528 86.1085H184.517Z" fill="#1B2621"/>
<path d="M110.22 68.9376C110.22 64.4378 110.22 59.9344 110.22 55.4345C110.22 55.1419 110.209 54.8492 110.213 54.5565C110.213 54.1431 110.001 53.9675 109.589 53.9712C109.069 53.9749 108.55 53.9639 108.03 53.9602C107.622 53.9602 107.544 53.7005 107.551 53.3749C107.558 53.0493 107.495 52.6761 107.985 52.6322C108.245 52.6066 108.505 52.6103 108.765 52.6103C114.856 52.6103 120.944 52.6103 127.036 52.6103C128.305 52.6103 128.16 52.5554 128.584 53.7188C129.17 55.3394 129.779 56.9491 130.325 58.5844C130.432 58.9064 131.008 59.3563 130.276 59.6783C129.66 59.949 129.615 59.9161 129.192 59.0856C127.886 56.5211 125.837 54.8455 123.015 54.1139C122.696 54.0297 122.358 53.9785 122.028 53.9748C119.541 53.9639 117.054 53.9639 114.563 53.9748C113.65 53.9785 113.613 54.0041 113.613 54.9004C113.602 58.8881 113.602 62.8794 113.613 66.867C113.613 67.7121 113.665 67.7633 114.478 67.7706C116.519 67.7853 118.561 67.7743 120.606 67.7743C121.249 67.7743 121.861 67.5877 122.433 67.3426C123.316 66.9658 123.817 66.2561 123.895 65.2976C123.932 64.8622 123.906 64.4195 123.914 63.9805C123.929 63.0916 123.992 63.0074 124.567 63.0038C125.402 63.0001 125.135 63.6257 125.142 64.0318C125.168 65.6414 125.154 67.2511 125.154 68.8608C125.154 70.4339 125.146 72.007 125.154 73.5801C125.154 74.0301 125.009 74.2569 124.515 74.2387C124.099 74.224 123.903 74.0704 123.914 73.646C123.925 73.0241 123.925 72.4021 123.914 71.7802C123.877 70.1852 122.886 69.1608 121.271 69.1389C119.044 69.1059 116.816 69.1242 114.585 69.1352C113.635 69.1389 113.613 69.1608 113.609 70.1522C113.602 73.518 113.605 76.8873 113.605 80.253C113.605 81.0945 113.587 81.9359 113.613 82.7773C113.646 84.0065 114.218 84.5443 115.476 84.5955C115.588 84.5992 115.699 84.5955 115.81 84.5955C116.545 84.6248 116.894 85.1736 116.605 85.8321C116.538 85.9821 116.419 86.0552 116.271 86.0772C116.126 86.0991 115.974 86.1028 115.825 86.1028C113.227 86.1028 110.628 86.1101 108.026 86.1028C107.258 86.1028 107.221 86.0077 107.206 85.287C107.191 84.7529 107.421 84.5809 107.933 84.5919C108.446 84.6029 108.954 84.6394 109.463 84.4126C109.93 84.2041 110.175 83.9114 110.201 83.4249C110.22 83.0956 110.224 82.7664 110.224 82.4371C110.224 77.9373 110.224 73.4338 110.224 68.934L110.22 68.9376Z" fill="#1B2621"/>
<path d="M88.2586 52.6019C91.3396 52.6019 94.4244 52.6019 97.5054 52.6019C98.6784 52.6019 98.5559 52.6238 98.9086 53.597C99.5433 55.353 100.189 57.109 100.828 58.865C100.954 59.2089 101.125 59.5272 100.553 59.7174C100.041 59.8857 99.8477 59.754 99.6435 59.2967C98.6376 57.0505 96.9486 55.4774 94.6657 54.5189C93.771 54.1421 92.8467 53.9408 91.8556 53.9555C89.5541 53.9884 87.2527 53.9591 84.9475 53.9701C84.0195 53.9738 83.9935 53.9921 83.9935 54.8847C83.986 58.8724 83.986 62.8637 83.9935 66.8513C83.9935 67.7366 84.0269 67.7622 84.9512 67.7696C86.9557 67.7805 88.9602 67.7695 90.9684 67.7732C91.6143 67.7732 92.2231 67.5866 92.7948 67.3452C93.7711 66.9318 94.2499 66.1269 94.3167 65.0953C94.3501 64.5831 94.3427 64.0709 94.3316 63.5587C94.3241 63.1271 94.5394 62.9954 94.9515 62.9954C95.3821 62.9954 95.564 63.1746 95.538 63.588C95.5306 63.6978 95.538 63.8075 95.538 63.9173C95.538 67.0635 95.5417 70.2134 95.538 73.3596C95.538 74.1644 95.3969 74.2961 94.803 74.2412C94.4801 74.212 94.339 74.0583 94.339 73.751C94.339 73.1657 94.339 72.5803 94.3279 71.995C94.287 70.1475 93.2773 69.1488 91.4176 69.1378C89.2646 69.1268 87.1116 69.1305 84.9549 69.1378C84.0195 69.1414 83.9972 69.1597 83.9935 70.0487C83.986 74.2925 83.9786 78.5398 83.9935 82.7836C83.9972 84.0128 84.58 84.5506 85.8532 84.5981C85.9646 84.6018 86.0759 84.5981 86.1873 84.5981C86.9371 84.6274 87.2749 85.1469 86.9817 85.82C86.9446 85.9078 86.8555 85.9956 86.7664 86.0395C86.6736 86.0871 86.5511 86.0944 86.4397 86.0944C83.6557 86.0944 80.8716 86.0944 78.0839 86.0944C77.5233 86.0944 77.5605 85.7066 77.553 85.3335C77.5493 84.9384 77.5716 84.5835 78.1173 84.5981C78.4142 84.6055 78.7112 84.6091 79.0082 84.5908C80.1812 84.5213 80.5747 84.1152 80.6044 82.9482C80.6118 82.5824 80.6044 82.2165 80.6044 81.8507C80.6044 73.1401 80.6044 64.4294 80.6044 55.7188C80.6044 55.5359 80.6044 55.353 80.6044 55.1701C80.5994 54.3652 80.1936 53.9604 79.3868 53.9555C79.1641 53.9555 78.9413 53.9628 78.7186 53.9555C77.9725 53.9299 77.8945 53.8274 77.9242 53.1323C77.9428 52.7738 78.069 52.5872 78.4514 52.6019C78.7112 52.6128 78.971 52.6019 79.2309 52.6019C82.2377 52.6019 85.2481 52.6019 88.2549 52.6019H88.2586Z" fill="#1B2621"/>
<path d="M248.656 59.5009C248.285 59.8008 248.226 60.1777 248.085 60.5069C247.272 62.4312 246.466 64.3592 245.661 66.2872C245.082 67.6774 245.052 67.692 243.415 67.3847C243.285 67.1944 243.433 67.0371 243.497 66.8798C245.312 62.4349 247.134 57.9899 248.957 53.5487C249.139 53.1097 249.261 52.6889 249.93 52.6999C250.568 52.7109 250.924 52.8719 251.173 53.4938C252.524 56.8229 253.92 60.1338 255.301 63.4519C258.133 70.2565 260.962 77.0575 263.794 83.8621C264.229 84.9047 264.232 84.9047 265.416 84.9084C265.639 84.9084 265.862 84.9084 266.085 84.9084C266.998 84.9267 267.079 84.9888 267.083 85.5449C267.083 86.2766 266.534 86.1047 266.133 86.1047C264.203 86.1193 262.272 86.112 260.338 86.112C259.262 86.112 258.185 86.1083 257.109 86.112C256.671 86.112 256.3 86.112 256.318 85.4974C256.337 84.8828 256.73 84.9084 257.153 84.9084C257.673 84.9084 258.193 84.9084 258.712 84.8901C259.046 84.8827 259.184 84.7108 259.072 84.3889C259.002 84.1803 258.917 83.9791 258.835 83.7743C255.583 75.916 252.335 68.0578 249.08 60.1996C248.983 59.9691 248.927 59.7094 248.656 59.5045V59.5009Z" fill="#1B2621"/>
<path d="M237.751 86.1091C237.639 86.1091 237.528 86.1091 237.417 86.1091C236.338 86.1091 235.931 85.5798 236.195 84.5213C236.385 83.7677 236.741 83.0982 237.153 82.4361C238.816 79.7691 240.501 77.6509 242.825 75.5144C243.375 75.0095 244.291 74.3327 244.908 73.9303C246.801 72.7011 248.765 71.5926 250.791 70.5902C251.055 70.4621 251.33 70.3195 251.612 70.2719C252.161 70.1768 252.658 70.528 252.8 71.0402C252.941 71.556 252.77 71.9072 252.217 72.1633C250.936 72.7523 249.719 73.4511 248.512 74.1754C244.206 76.7546 241.27 80.3764 239.863 85.1725C239.599 86.0725 239.566 86.0871 238.642 86.1054C238.345 86.1127 238.048 86.1054 237.751 86.1054V86.1091Z" fill="#1B2621"/>
<path d="M37.1387 70.074C37.2649 65.0437 38.7311 60.5878 42.3059 56.8818C45.6393 53.4247 49.9119 51.7455 54.823 51.4455C59.9196 51.1345 64.6711 52.0747 68.7098 55.188C72.2845 57.9464 74.1777 61.6012 74.8607 65.7973C75.6773 70.7983 74.8199 75.5689 71.917 79.8858C67.804 86.0063 61.6903 88.494 54.0917 87.9196C43.9169 87.1477 37.7103 79.637 37.2129 71.1495C37.1906 70.7471 37.1609 70.3447 37.1424 70.074H37.1387ZM70.2317 69.3021C70.1983 68.6106 70.1872 67.9192 70.1278 67.2314C69.7937 63.3938 68.6727 59.8122 65.9295 56.8343C63.2493 53.9259 59.8899 52.2064 55.6841 52.5576C49.8339 53.0478 46.0031 56.1758 43.7796 61.078C42.0683 64.8498 41.7676 68.8265 42.2799 72.858C42.7773 76.7615 44.3067 80.2443 47.2726 83.1198C52.8741 88.5525 61.2708 88.1464 66.1188 82.143C69.1812 78.3529 70.1389 73.9336 70.2317 69.2984V69.3021Z" fill="#1B2621"/>
<path d="M29.2419 76.0793C28.8336 75.9074 28.4549 76.1598 28.132 76.4159C27.8202 76.6647 27.7125 76.9939 27.7274 77.389C27.7459 77.9012 27.7459 78.4134 27.7274 78.9255C27.6754 80.2462 27.2448 81.4352 26.3762 82.4522C24.1526 85.057 21.2795 85.9058 18.1614 85.7704C15.4404 85.507 12.7492 84.3253 10.5145 82.2035C7.63766 79.4707 6.14913 76.1561 5.66656 72.4429C5.39929 70.3905 5.36217 68.3565 5.63686 66.359C6.28647 63.2091 7.4632 60.2458 9.43059 57.6191C9.47142 57.5606 9.51968 57.5093 9.56051 57.4545C11.5056 54.9302 14.0595 53.3973 17.3299 53.3095C17.5452 53.3022 17.7605 53.3205 17.9795 53.3095C18.9223 53.2729 19.9246 53.3571 20.9528 53.4595C21.3203 53.5034 21.6581 53.5985 21.9774 53.679C24.1081 54.2278 25.7006 55.0985 26.9367 56.9057C27.4861 57.7069 27.9315 58.5264 27.7496 59.558C27.6754 59.9824 27.7311 60.4361 27.7422 60.8714C27.7571 61.325 27.913 61.7348 28.2136 62.0787C28.4549 62.3567 28.7964 62.3933 29.1342 62.3274C29.55 62.247 29.4683 61.8958 29.472 61.6214C29.4832 60.5239 29.4758 59.4263 29.4758 58.3288C29.4758 57.2679 29.4535 56.207 29.4869 55.146C29.5017 54.6339 29.3236 54.3229 28.8298 54.1436C28.1691 53.9022 27.5306 53.6022 26.8736 53.3571C24.123 52.3437 21.2721 52.1059 18.3692 52.062C18.3692 52.062 18.2876 52.062 18.2467 52.062C18.1131 52.0657 17.9795 52.073 17.8421 52.0803C13.0758 52.3657 8.92575 53.9607 5.68883 57.2496C4.37847 58.5813 3.36136 60.0153 2.59297 61.5409C1.33086 64.0542 0.748069 66.8199 0.673828 69.7979C0.673828 69.8491 0.681252 69.9076 0.684964 69.9698C0.703525 70.2113 0.725797 70.5149 0.740645 70.8222C1.2195 78.8926 7.2479 86.0375 17.1257 86.7691C17.4672 86.7947 17.7568 86.7984 18.1539 86.7801C21.2647 86.6374 21.5431 86.6045 28.9858 83.9229C29.4275 83.7656 29.331 83.4144 29.3384 83.1071C29.3829 81.0584 29.4238 79.0097 29.4535 76.961C29.4572 76.65 29.5982 76.2293 29.2345 76.0757L29.2419 76.0793Z" fill="#1B2621"/>
</svg>
